<mxfile host="app.diagrams.net" modified="2023-10-18T07:27:49.979Z" agent="Mozilla/5.0 (X11; Linux x86_64) AppleWebKit/537.36 (KHTML, like Gecko) Chrome/117.0.0.0 Safari/537.36" version="22.0.4" etag="glPZ2ut905igrhF7N8WJ" type="github">
  <diagram name="Page-1" id="E49BTuY-lp1kJ3oBSuN0">
    <mxGraphModel>
      <root>
        <mxCell id="0" />
        <mxCell id="1" parent="0" />
      </root>
    </mxGraphModel>
  </diagram>
</mxfile>
